<svg width="176" height="59" viewBox="0 0 176 59" fill="none" xmlns="http://www.w3.org/2000/svg">
<path d="M7.328 6.88C7.328 8.11733 7.28533 9.76 7.2 11.808L7.136 15.968C7.136 20.0213 7.43467 23.4133 8.032 26.144C8.88533 29.984 10.1653 32.9493 11.872 35.04C13.4507 36.8747 15.392 37.792 17.696 37.792C19.488 37.792 21.088 37.2587 22.496 36.192C23.904 35.0827 24.992 33.7173 25.76 32.096C27.04 29.4507 27.68 26.1867 27.68 22.304C27.68 19.9573 27.5307 17.184 27.232 13.984C26.976 10.4 26.848 7.712 26.848 5.92C26.848 4.98133 27.4027 4.384 28.512 4.128C29.6213 3.82933 30.7733 3.68 31.968 3.68C32.3947 3.68 32.8853 3.95733 33.44 4.512C33.9947 5.06666 34.272 5.664 34.272 6.304C34.272 7.584 34.208 8.8 34.08 9.952C33.9947 11.232 33.952 12.128 33.952 12.64C33.952 14.2613 34.0373 16.5227 34.208 19.424C34.2507 20.1493 34.2933 21.024 34.336 22.048C34.3787 23.072 34.4 24.2453 34.4 25.568C34.4 28.4693 33.696 31.3707 32.288 34.272C30.9227 37.1307 29.0027 39.4987 26.528 41.376C24.0533 43.2107 21.2587 44.128 18.144 44.128C13.3653 44.128 9.632 42.592 6.944 39.52C4.256 36.4053 2.42133 32.3947 1.44 27.488C0.885334 24.672 0.522667 21.728 0.352 18.656C0.224 15.584 0.16 11.4667 0.16 6.304C0.16 5.62133 0.48 4.98133 1.12 4.384C1.80267 3.78667 2.528 3.488 3.296 3.488C5.984 3.488 7.328 4.61867 7.328 6.88ZM43.3015 21.728C42.9175 21.728 42.5548 21.7707 42.2135 21.856C41.8722 21.8987 41.5308 21.92 41.1895 21.92C40.7202 21.92 40.2722 21.7067 39.8455 21.28C39.4615 20.8533 39.2695 20.4693 39.2695 20.128C39.2695 19.0187 39.8242 18.1653 40.9335 17.568C42.0428 16.928 43.1735 16.608 44.3255 16.608C45.3068 16.608 46.3095 16.9493 47.3335 17.632C48.4002 18.272 49.1895 19.104 49.7015 20.128C50.8108 18.8053 52.1762 17.8453 53.7975 17.248C55.4188 16.6507 57.1042 16.352 58.8535 16.352C60.8162 16.352 62.6295 16.9707 64.2935 18.208C66.0002 19.4453 67.3442 21.024 68.3255 22.944C69.3068 24.8213 69.7975 26.6987 69.7975 28.576C69.7975 30.4107 69.6055 32.0533 69.2215 33.504C68.8375 34.912 68.1548 36.3413 67.1735 37.792C66.0642 39.328 64.5708 40.5867 62.6935 41.568C60.8588 42.5493 58.6615 43.04 56.1015 43.04C55.4188 43.04 54.5868 42.8693 53.6055 42.528C52.6242 42.144 51.8135 41.7387 51.1735 41.312C50.8748 44.2133 50.7255 46.7307 50.7255 48.864C50.7255 50.144 50.7895 51.36 50.9175 52.512C51.0028 53.8773 51.0455 54.8587 51.0455 55.456C51.0455 56.3947 50.7255 57.0773 50.0855 57.504C49.4455 57.9733 48.7415 58.208 47.9735 58.208C46.4375 58.208 45.4135 57.7813 44.9015 56.928C44.4322 56.1173 44.1975 54.944 44.1975 53.408C44.3682 49.7387 44.5815 46.3467 44.8375 43.232C45.0935 39.392 45.2215 33.4613 45.2215 25.44C45.2215 24.672 45.0722 23.8613 44.7735 23.008C44.4748 22.1547 43.9842 21.728 43.3015 21.728ZM51.4295 34.976C51.6428 35.7867 52.2402 36.4693 53.2215 37.024C54.2455 37.536 55.1628 37.792 55.9735 37.792C58.4055 37.792 60.2188 37.1307 61.4135 35.808C62.3095 34.8693 62.8855 33.952 63.1415 33.056C63.4402 32.16 63.5895 30.7307 63.5895 28.768C63.5895 27.232 63.2908 25.952 62.6935 24.928C62.0962 23.8613 61.3708 23.0933 60.5175 22.624C59.6642 22.112 58.8535 21.856 58.0855 21.856C56.3362 21.856 54.9068 22.3893 53.7975 23.456C52.7308 24.48 52.0482 25.888 51.7495 27.68C51.5362 29.088 51.4295 31.52 51.4295 34.976ZM82.8725 34.08C82.8725 35.7013 83.1072 36.96 83.5765 37.856C84.0885 38.7093 84.7285 39.136 85.4965 39.136C85.9232 39.136 86.3285 39.1147 86.7125 39.072C87.0965 38.9867 87.4805 38.944 87.8645 38.944C88.2912 38.944 88.6538 39.1573 88.9525 39.584C89.2938 40.0107 89.4645 40.48 89.4645 40.992C89.4645 42.016 88.9738 42.8267 87.9925 43.424C87.0538 43.9787 85.7738 44.256 84.1525 44.256C83.0005 44.256 81.8272 43.9147 80.6325 43.232C79.4805 42.5067 78.5205 41.3973 77.7525 39.904C76.9845 38.368 76.6005 36.4693 76.6005 34.208C76.6005 29.344 76.6858 25.2267 76.8565 21.856C77.0698 17.8453 77.1765 12.7893 77.1765 6.688C77.1765 4.768 77.2832 3.424 77.4965 2.656C77.7525 2.05866 78.1578 1.61066 78.7125 1.312C79.3098 0.970665 79.9285 0.799999 80.5685 0.799999C81.2085 0.799999 81.7632 0.906666 82.2325 1.12C82.7445 1.33333 83.0858 1.67466 83.2565 2.144C83.4272 2.656 83.5338 3.168 83.5765 3.68C83.6618 4.14933 83.7045 4.832 83.7045 5.728C83.7045 7.47733 83.6405 9.16266 83.5125 10.784C83.4272 12.7467 83.3845 14.176 83.3845 15.072C83.0432 22.5813 82.8725 28.9173 82.8725 34.08ZM97.0935 2.912C98.5868 3.04 99.8882 3.44533 100.998 4.128C102.107 4.768 102.662 5.74933 102.662 7.072C102.662 8.05333 102.192 8.84267 101.254 9.44C100.358 9.99467 99.2695 10.272 97.9895 10.272C96.7522 10.272 95.8988 9.952 95.4295 9.312C94.9602 8.672 94.7255 8.01066 94.7255 7.328C94.7255 6.048 94.8535 4.98133 95.1095 4.128C95.4082 3.27467 96.0695 2.86933 97.0935 2.912ZM102.214 31.264V33.12C102.214 34.784 102.256 36.3627 102.342 37.856C102.47 39.3067 102.619 40.7787 102.79 42.272C102.747 42.6987 102.427 43.1467 101.83 43.616C101.232 44.0427 100.699 44.256 100.23 44.256C99.4188 44.256 98.5868 44.1067 97.7335 43.808C96.9228 43.4667 96.4322 43.0613 96.2615 42.592C96.0055 41.2267 95.8775 40.0107 95.8775 38.944C95.8775 35.4453 95.7708 31.52 95.5575 27.168C95.3868 23.328 95.3015 20.64 95.3015 19.104C95.3015 18.336 95.6855 17.6747 96.4535 17.12C97.2215 16.5653 98.0322 16.288 98.8855 16.288C100.123 16.288 100.976 16.5653 101.446 17.12C101.958 17.6747 102.214 18.5493 102.214 19.744V31.264ZM139.389 39.072C139.602 39.1573 139.943 39.264 140.413 39.392C140.882 39.52 141.223 39.648 141.437 39.776C141.65 39.904 141.757 40.096 141.757 40.352C141.799 41.376 141.415 42.2293 140.604 42.912C139.837 43.552 138.919 43.872 137.853 43.872C136.189 43.872 134.887 43.424 133.949 42.528C133.01 41.632 132.327 40.2667 131.901 38.432C131.73 37.7067 131.645 36.704 131.645 35.424C131.645 34.6987 131.687 33.5253 131.773 31.904C131.858 30.1973 131.901 28.832 131.901 27.808C131.901 25.9733 131.709 24.5867 131.325 23.648C130.941 22.6667 130.023 22.176 128.573 22.176C127.079 22.176 125.735 22.7733 124.541 23.968C123.389 25.1627 122.407 26.9547 121.597 29.344C120.487 32.672 119.869 37.088 119.741 42.592C119.741 42.8907 119.421 43.2533 118.781 43.68C118.183 44.064 117.458 44.256 116.605 44.256C115.026 44.256 114.045 43.424 113.661 41.76L113.597 40.672C113.597 40.288 113.639 39.84 113.725 39.328C114.237 36.3413 114.493 33.7387 114.493 31.52C114.493 30.5387 114.471 29.7707 114.429 29.216L114.365 26.208C114.365 25.184 114.109 24.2027 113.597 23.264C113.085 22.2827 112.487 21.792 111.805 21.792C111.591 21.792 111.293 21.8773 110.909 22.048C110.525 22.176 110.205 22.24 109.949 22.24C109.522 22.24 109.053 22.0267 108.541 21.6C108.071 21.1733 107.837 20.7253 107.837 20.256C107.837 19.36 108.135 18.6347 108.733 18.08C109.373 17.568 109.991 17.1627 110.589 16.864C111.229 16.5653 111.954 16.416 112.765 16.416C113.447 16.416 114.002 16.48 114.429 16.608C114.855 16.736 115.431 17.0133 116.157 17.44C116.583 17.6533 117.074 18.2507 117.629 19.232C118.183 20.2133 118.61 21.6 118.909 23.392C119.762 21.8133 121.191 20.1493 123.197 18.4C124.69 17.0347 126.845 16.352 129.661 16.352C132.221 16.352 134.247 17.2907 135.741 19.168C137.234 21.0027 137.981 23.5413 137.981 26.784C137.981 27.424 137.938 28.4693 137.853 29.92C137.725 31.072 137.661 32.288 137.661 33.568C137.661 36.5547 138.237 38.3893 139.389 39.072ZM151.445 44.256C150.592 44.256 149.866 44.1067 149.269 43.808C148.672 43.5093 148.309 43.1893 148.181 42.848C147.712 41.1413 147.477 38.9013 147.477 36.128C147.477 31.008 147.562 26.848 147.733 23.648C147.904 19.8507 147.989 16.2027 147.989 12.704C147.989 11.68 147.861 10.1867 147.605 8.224C147.562 7.88266 147.498 7.264 147.413 6.368C147.328 5.472 147.285 4.64 147.285 3.872C147.285 2.93333 147.605 2.18666 148.245 1.632C148.928 1.07733 149.802 0.799999 150.869 0.799999C151.722 0.799999 152.405 1.07733 152.917 1.632C153.472 2.144 153.749 2.848 153.749 3.744C153.749 5.10933 153.792 7.02933 153.877 9.504C153.962 11.808 154.005 13.536 154.005 14.688C154.005 15.968 153.962 17.6747 153.877 19.808C153.792 21.088 153.749 22.0267 153.749 22.624C153.749 24.5013 153.77 26.0587 153.813 27.296C155.392 25.7173 157.461 23.8613 160.021 21.728C162.581 19.5947 164.565 18.1013 165.973 17.248C167.466 16.352 168.448 15.904 168.917 15.904C169.813 15.904 170.581 16.096 171.221 16.48C171.861 16.864 172.181 17.4187 172.181 18.144C172.181 18.8693 172.074 19.4453 171.861 19.872C171.648 20.2987 171.264 20.7253 170.709 21.152L162.453 27.168C163.392 27.6373 164.181 28.2347 164.821 28.96C165.504 29.6853 166.186 30.5813 166.869 31.648C168.32 34.0373 169.472 35.7867 170.325 36.896C171.221 38.0053 172.032 38.56 172.757 38.56L174.357 38.496C174.656 38.496 174.912 38.6667 175.125 39.008C175.381 39.3493 175.509 39.84 175.509 40.48C175.509 41.4613 175.018 42.2507 174.037 42.848C173.098 43.4453 172.032 43.744 170.837 43.744C169.173 43.744 167.701 43.104 166.421 41.824C165.141 40.5013 163.925 38.7307 162.773 36.512C161.109 33.3547 159.466 31.4773 157.845 30.88L153.749 34.208L154.005 41.184C154.005 42.2933 153.706 43.0827 153.109 43.552C152.554 44.0213 152 44.256 151.445 44.256Z" fill="black"/>
</svg>
